<svg xmlns="http://www.w3.org/2000/svg" viewBox="0 0 2560 1440" width="2560" height="1440">
  <defs>
    <radialGradient id="bgr" cx="50%" cy="50%" r="65%">
      <stop offset="0%" stop-color="#0D3D38"/>
      <stop offset="100%" stop-color="#041A17"/>
    </radialGradient>
  </defs>
  <rect width="2560" height="1440" fill="url(#bgr)"/>
  <!-- Subtle grid -->
  <g opacity="0.04" stroke="#14B8A6" stroke-width="0.5">
    <line x1="0" y1="360" x2="2560" y2="360"/>
    <line x1="0" y1="720" x2="2560" y2="720"/>
    <line x1="0" y1="1080" x2="2560" y2="1080"/>
    <line x1="640" y1="0" x2="640" y2="1440"/>
    <line x1="1280" y1="0" x2="1280" y2="1440"/>
    <line x1="1920" y1="0" x2="1920" y2="1440"/>
  </g>
  <!-- Decorative convergence nodes (left cluster) - outside safe zone, purely decorative -->
  <g opacity="0.2">
    <line x1="120" y1="560" x2="230" y2="670" stroke="#0F766E" stroke-width="3" stroke-linecap="round"/>
    <line x1="400" y1="560" x2="280" y2="670" stroke="#0F766E" stroke-width="3" stroke-linecap="round"/>
    <line x1="120" y1="820" x2="230" y2="700" stroke="#0F766E" stroke-width="3" stroke-linecap="round"/>
    <line x1="400" y1="820" x2="280" y2="700" stroke="#0F766E" stroke-width="3" stroke-linecap="round"/>
    <circle cx="120" cy="560" r="6" fill="#14B8A6"/>
    <circle cx="400" cy="560" r="6" fill="#14B8A6"/>
    <circle cx="120" cy="820" r="6" fill="#14B8A6"/>
    <circle cx="400" cy="820" r="6" fill="#14B8A6"/>
    <circle cx="255" cy="685" r="10" fill="#0F766E"/>
    <circle cx="255" cy="685" r="4" fill="#14B8A6"/>
  </g>
  <!-- Decorative convergence nodes (right cluster) -->
  <g opacity="0.2">
    <line x1="2160" y1="560" x2="2270" y2="670" stroke="#0F766E" stroke-width="3" stroke-linecap="round"/>
    <line x1="2440" y1="560" x2="2320" y2="670" stroke="#0F766E" stroke-width="3" stroke-linecap="round"/>
    <line x1="2160" y1="820" x2="2270" y2="700" stroke="#0F766E" stroke-width="3" stroke-linecap="round"/>
    <line x1="2440" y1="820" x2="2320" y2="700" stroke="#0F766E" stroke-width="3" stroke-linecap="round"/>
    <circle cx="2160" cy="560" r="6" fill="#14B8A6"/>
    <circle cx="2440" cy="560" r="6" fill="#14B8A6"/>
    <circle cx="2160" cy="820" r="6" fill="#14B8A6"/>
    <circle cx="2440" cy="820" r="6" fill="#14B8A6"/>
    <circle cx="2305" cy="685" r="10" fill="#0F766E"/>
    <circle cx="2305" cy="685" r="4" fill="#14B8A6"/>
  </g>
  <!-- Center logo mark - everything within safe zone (x:507-2053, y:509-931) -->
  <!-- Logo centered at 1280,660 - compact version -->
  <g transform="translate(1280, 650)">
    <line x1="-65" y1="-65" x2="-14" y2="-14" stroke="#0F766E" stroke-width="7" stroke-linecap="round"/>
    <line x1="65" y1="-65" x2="14" y2="-14" stroke="#0F766E" stroke-width="7" stroke-linecap="round"/>
    <line x1="-65" y1="65" x2="-14" y2="14" stroke="#0F766E" stroke-width="7" stroke-linecap="round"/>
    <line x1="65" y1="65" x2="14" y2="14" stroke="#0F766E" stroke-width="7" stroke-linecap="round"/>
    <circle cx="-65" cy="-65" r="10" fill="#14B8A6"/>
    <circle cx="65" cy="-65" r="10" fill="#14B8A6"/>
    <circle cx="-65" cy="65" r="10" fill="#14B8A6"/>
    <circle cx="65" cy="65" r="10" fill="#14B8A6"/>
    <circle cx="0" cy="0" r="20" fill="#14B8A6" opacity="0.15"/>
    <circle cx="0" cy="0" r="15" fill="#0F766E"/>
    <circle cx="0" cy="0" r="7" fill="#14B8A6"/>
  </g>
  <!-- SCHELLING text - y:770 -->
  <text x="1280" y="785" text-anchor="middle"
        font-family="'SF Mono', 'Fira Code', 'JetBrains Mono', monospace"
        font-size="52" font-weight="600" letter-spacing="10" fill="#0F766E">SCHELLING</text>
  <!-- PROTOCOL text - y:820 -->
  <text x="1280" y="830" text-anchor="middle"
        font-family="'SF Mono', 'Fira Code', 'JetBrains Mono', monospace"
        font-size="22" font-weight="400" letter-spacing="14" fill="#14B8A6">PROTOCOL</text>
  <!-- Tagline - y:870 -->
  <text x="1280" y="875" text-anchor="middle"
        font-family="'Inter', 'Helvetica Neue', sans-serif"
        font-size="18" font-weight="300" letter-spacing="3" fill="#5EEAD4" opacity="0.6">UNIVERSAL COORDINATION FOR AI AGENTS</text>
</svg>
